#N canvas 0 50 450 448 10;
#X obj 22 57 inlet~;
#X obj 211 59 inlet~;
#X obj 82 57 inlet;
#X obj 82 85 t b f;
#X msg 82 113 1;
#X obj 82 141 -;
#X obj 49 227 *~;
#X msg 82 169 \$1 30;
#X obj 80 365 outlet~;
#X obj 82 197 vline~;
#X obj 84 304 +~;
#X msg 142 169 \$1 30;
#X obj 142 197 vline~;
#X obj 189 227 *~;
#X connect 0 0 6 0;
#X connect 1 0 13 1;
#X connect 2 0 3 0;
#X connect 2 0 11 0;
#X connect 3 0 4 0;
#X connect 3 1 5 1;
#X connect 4 0 5 0;
#X connect 5 0 7 0;
#X connect 6 0 10 0;
#X connect 7 0 9 0;
#X connect 9 0 6 1;
#X connect 10 0 8 0;
#X connect 11 0 12 0;
#X connect 12 0 13 0;
#X connect 13 0 10 1;
