#N canvas 874 128 926 596 10;
#X obj 50 185 select 192;
#X obj 107 296 spigot;
#X msg 140 273 0;
#X msg 50 234 1;
#X obj 69 358 spigot;
#X msg 102 226 0;
#X obj 50 209 t b b b;
#X obj 229 81 t f b;
#X obj 247 230 * 128;
#X obj 229 258 +;
#X msg 50 134 open \$1;
#X obj 69 326 repack 12;
#X obj 229 53 unpack f f f f f f f f f f f f;
#X obj 284 111 * 128;
#X obj 266 139 +;
#X obj 322 229 * 128;
#X obj 304 257 +;
#X obj 359 111 * 128;
#X obj 341 139 +;
#X obj 397 229 * 128;
#X obj 379 257 +;
#X obj 435 111 * 128;
#X obj 417 139 +;
#X obj 50 256 t f f;
#X obj 21 21 bng 15 250 50 0 empty empty empty 17 7 0 10 -262144 -1
-1;
#X obj 21 398 bng 15 250 50 0 empty empty empty 17 7 0 10 -262144 -1
-1;
#X obj 485 36 bng 15 250 50 0 empty empty empty 17 7 0 10 -262144 -1
-1;
#X obj 485 413 bng 15 250 50 0 empty empty empty 17 7 0 10 -262144
-1 -1;
#X text 31 415 gets the input from the arduino - converts it to values
from 0 to 1, f 34;
#X obj 50 162 comport 6 115200;
#X obj 266 167 / 1023;
#X obj 341 167 / 1023;
#X obj 417 167 / 1023;
#X obj 379 286 / 1023;
#X obj 304 286 / 1023;
#X obj 229 286 / 1023;
#X obj 694 60 inlet;
#X obj 185 492 outlet;
#X obj 249 492 outlet;
#X obj 313 492 outlet;
#X obj 377 492 outlet;
#X obj 441 492 outlet;
#X obj 505 492 outlet;
#X obj 613 215 vsl 32 128 0 1 0 0 empty p1Out p1 0 -9 0 10 -159808
-257985 -159808 7287 1;
#X obj 653 215 vsl 32 128 0 1 0 0 empty p2Out p2 0 -9 0 10 -159808
-257985 -159808 12700 1;
#X obj 693 215 vsl 32 128 0 1 0 0 empty p3Out p3 0 -9 0 10 -159808
-257985 -159808 11893 1;
#X obj 733 215 vsl 32 128 0 1 0 0 empty p4Out p4 0 -9 0 10 -159808
-257985 -159808 6021 1;
#X obj 773 215 vsl 32 128 0 1 0 0 empty p5Out p5 0 -9 0 10 -159808
-257985 -159808 12700 1;
#X obj 813 215 vsl 32 128 0 1 0 0 empty p6Out p6 0 -9 0 10 -159808
-257985 -159808 0 1;
#X floatatom 613 357 5 0 0 0 - - -, f 5;
#X floatatom 653 357 5 0 0 0 - - -, f 5;
#X floatatom 693 357 5 0 0 0 - - -, f 5;
#X floatatom 733 357 5 0 0 0 - - -, f 5;
#X floatatom 773 357 5 0 0 0 - - -, f 5;
#X floatatom 813 357 5 0 0 0 - - -, f 5;
#X obj 614 119 bng 15 250 50 0 empty empty devices 17 7 0 10 -262144
-1 -1;
#X obj 614 173 bng 15 250 50 0 empty empty close 17 7 0 10 -262144
-1 -1;
#X msg 132 134 close;
#X msg 33 87 devices;
#X floatatom 694 145 5 0 0 0 select_port - -, f 5;
#X obj 869 197 f;
#X obj 741 143 bng 15 250 50 0 empty empty go! 17 7 0 10 -262144 -1
-1;
#X obj 229 314 s p1Out;
#X obj 185 464 r p1Out;
#X obj 304 314 s p3Out;
#X obj 266 195 s p2Out;
#X obj 249 464 r p2Out;
#X obj 313 464 r p3Out;
#X obj 377 464 r p4Out;
#X obj 341 195 s p4Out;
#X obj 441 464 r p5Out;
#X obj 505 464 r p6Out;
#X obj 417 195 s p6Out;
#X obj 379 314 s p5Out;
#X obj 869 224 s open;
#X obj 50 110 r open;
#X obj 535 208 s close;
#X obj 132 111 r close;
#X obj 524 152 s devices;
#X obj 33 62 r devices;
#X text 598 386 HOW TO CONNECT TO THE MONK: 1 Click the "devices" button
2 Check console: you should see the available connected ports 3 Set
the "select port" number and hit the "go!" button. Now you should be
getting some readings when you rotate the potentiometers. If not \,
try another one of the ports. - Hit the "close" button to terminate
the connection., f 37;
#X connect 0 0 6 0;
#X connect 0 1 1 0;
#X connect 1 0 11 0;
#X connect 2 0 1 1;
#X connect 3 0 23 0;
#X connect 4 0 12 0;
#X connect 5 0 4 1;
#X connect 6 0 3 0;
#X connect 6 1 11 0;
#X connect 6 2 5 0;
#X connect 7 0 9 0;
#X connect 7 1 2 0;
#X connect 8 0 9 1;
#X connect 9 0 35 0;
#X connect 10 0 29 0;
#X connect 11 0 4 0;
#X connect 12 0 7 0;
#X connect 12 1 8 0;
#X connect 12 2 14 0;
#X connect 12 3 13 0;
#X connect 12 4 16 0;
#X connect 12 5 15 0;
#X connect 12 6 18 0;
#X connect 12 7 17 0;
#X connect 12 8 20 0;
#X connect 12 9 19 0;
#X connect 12 10 22 0;
#X connect 12 11 21 0;
#X connect 13 0 14 1;
#X connect 14 0 30 0;
#X connect 15 0 16 1;
#X connect 16 0 34 0;
#X connect 17 0 18 1;
#X connect 18 0 31 0;
#X connect 19 0 20 1;
#X connect 20 0 33 0;
#X connect 21 0 22 1;
#X connect 22 0 32 0;
#X connect 23 0 4 1;
#X connect 23 1 1 1;
#X connect 24 0 25 0;
#X connect 24 0 26 0;
#X connect 25 0 27 0;
#X connect 26 0 27 0;
#X connect 29 0 0 0;
#X connect 30 0 65 0;
#X connect 31 0 69 0;
#X connect 32 0 72 0;
#X connect 33 0 73 0;
#X connect 34 0 64 0;
#X connect 35 0 62 0;
#X connect 36 0 59 0;
#X connect 43 0 49 0;
#X connect 44 0 50 0;
#X connect 45 0 51 0;
#X connect 46 0 52 0;
#X connect 47 0 53 0;
#X connect 48 0 54 0;
#X connect 55 0 78 0;
#X connect 56 0 76 0;
#X connect 57 0 29 0;
#X connect 58 0 29 0;
#X connect 59 0 60 1;
#X connect 60 0 74 0;
#X connect 61 0 60 0;
#X connect 63 0 37 0;
#X connect 66 0 38 0;
#X connect 67 0 39 0;
#X connect 68 0 40 0;
#X connect 70 0 41 0;
#X connect 71 0 42 0;
#X connect 75 0 10 0;
#X connect 77 0 57 0;
#X connect 79 0 58 0;
#X coords 0 -1 1 1 260 280 1 600 100;
