#N canvas 615 101 1156 740 10;
#X obj 358 19 bng 15 250 50 0 empty empty empty 17 7 0 10 -262144 -1
-1;
#X obj 358 99 bng 15 250 50 0 empty empty empty 17 7 0 10 -262144 -1
-1;
#X obj 388 59 bng 15 250 50 0 empty empty empty 17 7 0 10 -262144 -1
-1;
#X obj 418 19 bng 15 250 50 0 empty empty empty 17 7 0 10 -262144 -1
-1;
#X obj 418 99 bng 15 250 50 0 empty empty empty 17 7 0 10 -262144 -1
-1;
#X obj 448 19 bng 15 250 50 0 empty empty empty 17 7 0 10 -262144 -1
-1;
#X obj 448 99 bng 15 250 50 0 empty empty empty 17 7 0 10 -262144 -1
-1;
#X obj 508 19 bng 15 250 50 0 empty empty empty 17 7 0 10 -262144 -1
-1;
#X obj 508 99 bng 15 250 50 0 empty empty empty 17 7 0 10 -262144 -1
-1;
#X obj 538 19 bng 15 250 50 0 empty empty empty 17 7 0 10 -262144 -1
-1;
#X obj 538 99 bng 15 250 50 0 empty empty empty 17 7 0 10 -262144 -1
-1;
#X obj 598 19 bng 15 250 50 0 empty empty empty 17 7 0 10 -262144 -1
-1;
#X obj 598 99 bng 15 250 50 0 empty empty empty 17 7 0 10 -262144 -1
-1;
#X obj 628 19 bng 15 250 50 0 empty empty empty 17 7 0 10 -262144 -1
-1;
#X obj 628 99 bng 15 250 50 0 empty empty empty 17 7 0 10 -262144 -1
-1;
#X obj 688 19 bng 15 250 50 0 empty empty empty 17 7 0 10 -262144 -1
-1;
#X obj 688 99 bng 15 250 50 0 empty empty empty 17 7 0 10 -262144 -1
-1;
#X obj 628 59 bng 15 250 50 0 empty empty empty 17 7 0 10 -262144 -1
-1;
#X obj 17 319 s p1;
#X obj 67 320 s p2;
#X obj 118 319 s p3;
#X obj 168 319 s p4;
#X obj 219 319 s p5;
#X obj 270 320 s p6;
#X obj 17 19 subPatches/MonkInputVisual;
#X obj 597 688 dac~ 1 2;
#X obj 619 655 *~;
#X obj 637 541 r p6;
#X msg 637 599 \$1 30;
#X obj 637 627 vline~;
#X obj 718 588 vsl 32 64 0 1 0 0 empty empty Master_Volume 0 -9 0 10
-159808 -257985 -159808 0 1;
#X obj 538 236 mtof;
#X obj 538 152 r p1;
#X obj 938 236 mtof;
#X obj 938 151 r p4;
#X obj 642 455 hsl 64 32 0 1 0 0 empty empty Mixer -2 -8 0 10 -159808
-257985 -159808 2974 1;
#X obj 676 427 r p3;
#X obj 373 380 subPatches/multiOsc~;
#X obj 538 380 subPatches/multiOsc~;
#X obj 773 380 subPatches/multiOsc~;
#X obj 938 380 subPatches/multiOsc~;
#X obj 538 208 + 36;
#X obj 495 171 vsl 32 64 0 1 0 0 empty empty Frequency-1 -35 -9 0 10
-159808 -257985 -159808 0 1;
#X obj 480 410 r p2;
#X msg 510 352 2;
#X msg 675 352 0;
#X msg 910 352 2;
#X msg 1075 352 0;
#X text 569 351 triangle wave;
#X text 418 351 square wave;
#X obj 446 438 hsl 64 32 0 1 0 0 empty empty Mixer -2 -8 0 10 -159808
-257985 -159808 4452 1;
#X obj 846 439 hsl 64 32 0 1 0 0 empty empty Mixer -2 -8 0 10 -159808
-257985 -159808 1601 1;
#X obj 880 411 r p5;
#X obj 637 569 pow 2;
#X obj 538 180 * 24;
#X obj 938 180 * 24;
#X obj 938 208 + 48;
#X text 969 351 triangle wave;
#X text 818 351 square wave;
#X obj 895 169 vsl 32 64 0 1 0 0 empty empty Frequency-2 -35 -9 0 10
-159808 -257985 -159808 0 1;
#X text 14 372 1 Click on "devices";
#X text 14 392 2 Check console for available ports;
#X text 14 412 3 Set the select port to arduino port;
#X text 14 432 4 Click on "go!";
#X text 14 452 5 Now you should have a connection!;
#X text 14 352 INSTRUCTIONS:;
#X obj 510 324 loadbang;
#X obj 675 324 loadbang;
#X obj 910 324 loadbang;
#X obj 1075 324 loadbang;
#X text 744 32 Author: Kostas Sfikas;
#X text 744 52 Date: March 2017;
#X text 14 472 6 Enable DSP to hear sound;
#X obj 17 530 subPatches/dspOnOff;
#X obj 618 498 subPatches/mixer~;
#X obj 422 481 subPatches/mixer~;
#X obj 822 482 subPatches/mixer~;
#X text 744 12 Monk-Example-1-Monk;
#X obj 599 218;
#X msg 538 264 \$1 30;
#X obj 538 292 vline~;
#X msg 938 264 \$1 30;
#X obj 938 292 vline~;
#X connect 0 0 1 0;
#X connect 0 0 2 0;
#X connect 2 0 3 0;
#X connect 3 0 4 0;
#X connect 5 0 6 0;
#X connect 5 0 7 0;
#X connect 6 0 8 0;
#X connect 7 0 8 0;
#X connect 9 0 10 0;
#X connect 9 0 12 0;
#X connect 11 0 12 0;
#X connect 13 0 14 0;
#X connect 17 0 15 0;
#X connect 17 0 16 0;
#X connect 24 0 18 0;
#X connect 24 1 19 0;
#X connect 24 2 20 0;
#X connect 24 3 21 0;
#X connect 24 4 22 0;
#X connect 24 5 23 0;
#X connect 26 0 25 0;
#X connect 26 0 25 1;
#X connect 27 0 53 0;
#X connect 28 0 29 0;
#X connect 29 0 26 1;
#X connect 31 0 79 0;
#X connect 32 0 42 0;
#X connect 32 0 54 0;
#X connect 33 0 81 0;
#X connect 34 0 55 0;
#X connect 34 0 59 0;
#X connect 36 0 35 0;
#X connect 36 0 74 1;
#X connect 37 0 75 0;
#X connect 38 0 75 2;
#X connect 39 0 76 0;
#X connect 40 0 76 2;
#X connect 41 0 31 0;
#X connect 43 0 50 0;
#X connect 43 0 75 1;
#X connect 44 0 37 2;
#X connect 45 0 38 2;
#X connect 46 0 39 2;
#X connect 47 0 40 2;
#X connect 52 0 51 0;
#X connect 52 0 76 1;
#X connect 53 0 28 0;
#X connect 53 0 30 0;
#X connect 54 0 41 0;
#X connect 55 0 56 0;
#X connect 56 0 33 0;
#X connect 66 0 44 0;
#X connect 67 0 45 0;
#X connect 68 0 46 0;
#X connect 69 0 47 0;
#X connect 74 0 26 0;
#X connect 75 0 74 0;
#X connect 76 0 74 2;
#X connect 79 0 80 0;
#X connect 80 0 38 0;
#X connect 80 0 37 0;
#X connect 81 0 82 0;
#X connect 82 0 40 0;
#X connect 82 0 39 0;
