#N canvas 46 93 1517 914 10;
#X obj 871 805 dac~ 1 2;
#X obj 893 772 *~;
#X obj 998 615 r p6;
#X msg 911 716 \$1 30;
#X obj 911 744 vline~;
#X obj 956 634 vsl 32 64 0 1 0 0 empty empty Master_Volume -45 -9 0
10 -159808 -257985 -159808 1312 1;
#X obj 446 284 r p1;
#X obj 730 610 osc~;
#X obj 588 450 osc~;
#X obj 589 284 r p2;
#X obj 730 584 +~;
#X obj 748 559 *~;
#X obj 722 284 r p3;
#X obj 722 352 * 1000;
#X obj 769 649 *~;
#X obj 884 415 *~ 0.5;
#X obj 884 438 +~ 0.5;
#X obj 856 284 r p4;
#X obj 446 340 + 120;
#X obj 446 312 * 1880;
#X obj 403 303 vsl 32 64 0 1 0 0 empty empty Main-Frequency -50 -9
0 10 -159808 -257985 -159808 1226 1;
#X floatatom 403 381 5 0 0 0 - - -, f 5;
#X msg 446 368 \$1 30;
#X obj 446 396 vline~;
#X obj 546 303 vsl 32 64 0 1 0 0 empty empty FM-Frequency -40 -9 0
10 -159808 -257985 -159808 1934 1;
#X floatatom 546 381 5 0 0 0 - - -, f 5;
#X obj 679 303 vsl 32 64 0 1 0 0 empty empty FM-Amplitude -40 -9 0
10 -159808 -257985 -159808 1848 1;
#X floatatom 679 381 5 0 0 0 - - -, f 5;
#X obj 983 301 r p5;
#X obj 884 390 osc~;
#X obj 812 303 vsl 32 64 0 1 0 0 empty empty AM-Frequency -40 -9 0
10 -159808 -257985 -159808 2901 1;
#X floatatom 812 376 5 0 0 0 - - -, f 5;
#X obj 737 381 + 1;
#X obj 997 378 -;
#X msg 983 349 1;
#X obj 983 325 t b f;
#X floatatom 945 395 5 0 0 0 - - -, f 5;
#X obj 883 461 *~;
#X obj 883 484 +~;
#X obj 856 360 + 0.5;
#X obj 589 332 * 99.5;
#X obj 589 360 + 0.5;
#X obj 945 303 vsl 32 64 0 1 0 0 empty empty AM-Intensity -40 -9 0
10 -159808 -257985 -159808 0 1;
#X floatatom 945 376 5 0 0 0 - - -, f 5;
#X obj 998 640 pow 2;
#X obj 722 308 pow 2;
#X obj 856 336 * 29.5;
#X obj 856 307 pow 2;
#X obj 589 306 pow 2;
#X obj 601 425 vline~;
#X msg 601 392 \$1 30;
#X obj 358 19 bng 15 250 50 0 empty empty empty 17 7 0 10 -262144 -1
-1;
#X obj 358 99 bng 15 250 50 0 empty empty empty 17 7 0 10 -262144 -1
-1;
#X obj 388 59 bng 15 250 50 0 empty empty empty 17 7 0 10 -262144 -1
-1;
#X obj 418 19 bng 15 250 50 0 empty empty empty 17 7 0 10 -262144 -1
-1;
#X obj 418 99 bng 15 250 50 0 empty empty empty 17 7 0 10 -262144 -1
-1;
#X obj 448 19 bng 15 250 50 0 empty empty empty 17 7 0 10 -262144 -1
-1;
#X obj 448 99 bng 15 250 50 0 empty empty empty 17 7 0 10 -262144 -1
-1;
#X obj 508 19 bng 15 250 50 0 empty empty empty 17 7 0 10 -262144 -1
-1;
#X obj 508 99 bng 15 250 50 0 empty empty empty 17 7 0 10 -262144 -1
-1;
#X obj 538 19 bng 15 250 50 0 empty empty empty 17 7 0 10 -262144 -1
-1;
#X obj 538 99 bng 15 250 50 0 empty empty empty 17 7 0 10 -262144 -1
-1;
#X obj 598 19 bng 15 250 50 0 empty empty empty 17 7 0 10 -262144 -1
-1;
#X obj 598 99 bng 15 250 50 0 empty empty empty 17 7 0 10 -262144 -1
-1;
#X obj 628 19 bng 15 250 50 0 empty empty empty 17 7 0 10 -262144 -1
-1;
#X obj 628 99 bng 15 250 50 0 empty empty empty 17 7 0 10 -262144 -1
-1;
#X obj 688 19 bng 15 250 50 0 empty empty empty 17 7 0 10 -262144 -1
-1;
#X obj 688 99 bng 15 250 50 0 empty empty empty 17 7 0 10 -262144 -1
-1;
#X obj 628 59 bng 15 250 50 0 empty empty empty 17 7 0 10 -262144 -1
-1;
#X obj 17 319 s p1;
#X obj 67 320 s p2;
#X obj 118 319 s p3;
#X obj 168 319 s p4;
#X obj 219 319 s p5;
#X obj 270 320 s p6;
#X obj 17 19 subPatches/MonkInputVisual;
#X text 14 372 1 Click on "devices";
#X text 14 392 2 Check console for available ports;
#X text 14 412 3 Set the select port to arduino port;
#X text 14 432 4 Click on "go!";
#X text 14 452 5 Now you should have a connection!;
#X text 14 352 INSTRUCTIONS:;
#X text 744 32 Author: Kostas Sfikas;
#X text 744 52 Date: March 2017;
#X text 14 472 6 Enable DSP to hear sound;
#X obj 17 530 subPatches/dspOnOff;
#X text 744 12 Monk-Example-2-AM-FM-1;
#X connect 1 0 0 0;
#X connect 1 0 0 1;
#X connect 2 0 44 0;
#X connect 2 0 5 0;
#X connect 3 0 4 0;
#X connect 4 0 1 1;
#X connect 6 0 19 0;
#X connect 6 0 20 0;
#X connect 7 0 14 0;
#X connect 8 0 11 0;
#X connect 9 0 24 0;
#X connect 9 0 48 0;
#X connect 10 0 7 0;
#X connect 11 0 10 1;
#X connect 12 0 26 0;
#X connect 12 0 45 0;
#X connect 13 0 11 1;
#X connect 13 0 27 0;
#X connect 14 0 1 0;
#X connect 15 0 16 0;
#X connect 16 0 37 0;
#X connect 17 0 30 0;
#X connect 17 0 47 0;
#X connect 18 0 21 0;
#X connect 18 0 22 0;
#X connect 19 0 18 0;
#X connect 22 0 23 0;
#X connect 23 0 10 0;
#X connect 28 0 35 0;
#X connect 28 0 37 1;
#X connect 28 0 43 0;
#X connect 28 0 42 0;
#X connect 29 0 15 0;
#X connect 33 0 36 0;
#X connect 33 0 38 1;
#X connect 34 0 33 0;
#X connect 35 0 34 0;
#X connect 35 1 33 1;
#X connect 37 0 38 0;
#X connect 38 0 14 1;
#X connect 39 0 29 0;
#X connect 39 0 31 0;
#X connect 40 0 41 0;
#X connect 41 0 25 0;
#X connect 41 0 50 0;
#X connect 44 0 3 0;
#X connect 45 0 13 0;
#X connect 46 0 39 0;
#X connect 47 0 46 0;
#X connect 48 0 40 0;
#X connect 49 0 8 0;
#X connect 50 0 49 0;
#X connect 51 0 52 0;
#X connect 51 0 53 0;
#X connect 53 0 54 0;
#X connect 54 0 55 0;
#X connect 56 0 57 0;
#X connect 56 0 58 0;
#X connect 57 0 59 0;
#X connect 58 0 59 0;
#X connect 60 0 61 0;
#X connect 60 0 63 0;
#X connect 62 0 63 0;
#X connect 64 0 65 0;
#X connect 68 0 66 0;
#X connect 68 0 67 0;
#X connect 75 0 69 0;
#X connect 75 1 70 0;
#X connect 75 2 71 0;
#X connect 75 3 72 0;
#X connect 75 4 73 0;
#X connect 75 5 74 0;
